<svg xmlns="http://www.w3.org/2000/svg" viewBox="0 0 32 32"><defs><style>.cls-1{fill:#ba63c6;}</style></defs><title>Bold Purple</title><g id="_84_Close_Remove_Circle_Minus_Delete" data-name="84 Close Remove Circle Minus Delete"><path class="cls-1" d="M16,1A15,15,0,1,0,31,16,15,15,0,0,0,16,1Zm0,26A11,11,0,1,1,27,16,11,11,0,0,1,16,27Z"/><path class="cls-1" d="M18.59,10.59,16,13.17l-2.59-2.59a2,2,0,0,0-2.83,2.83L13.17,16l-2.59,2.59a2,2,0,0,0,2.83,2.83L16,18.83l2.59,2.59a2,2,0,0,0,2.83-2.83L18.83,16l2.59-2.59a2,2,0,0,0-2.83-2.83Z"/></g></svg>